<svg id="Layer_1" enable-background="new 0 0 512 512" height="512" viewBox="0 0 512 512" width="512" xmlns="http://www.w3.org/2000/svg"><g><path d="m368 504.5h-224c-16.569 0-30-13.431-30-30v-437c0-16.569 13.431-30 30-30h224c16.569 0 30 13.431 30 30v437c0 16.569-13.431 30-30 30z" fill="#bdf9ff"/><path d="m368 7.5h-30c16.569 0 30 13.431 30 30v437c0 16.569-13.431 30-30 30h30c16.569 0 30-13.431 30-30v-437c0-16.569-13.431-30-30-30z" fill="#8cf2ff"/><path d="m398 440v34.5c0 16.569-13.431 30-30 30h-224c-16.569 0-30-13.431-30-30v-34.5z" fill="#4380a0"/><path d="m368 440v34.5c0 16.569-13.431 30-30 30h30c16.569 0 30-13.431 30-30v-34.5z" fill="#3b7191"/><path d="m318 48h-124c-8.837 0-16-7.163-16-16v-24h156v24c0 8.837-7.163 16-16 16z" fill="#4380a0"/><path d="m257 128.125h-174c-12.703 0-23-10.297-23-23 0-12.703 10.297-23 23-23h174c12.703 0 23 10.297 23 23 0 12.703-10.297 23-23 23z" fill="#f3f3f3"/><path d="m257 200.875h-174c-12.703 0-23-10.297-23-23 0-12.703 10.297-23 23-23h174c12.703 0 23 10.297 23 23 0 12.703-10.297 23-23 23z" fill="#f3f3f3"/><path d="m429 331.23h-174c-12.703 0-23-10.297-23-23 0-12.703 10.297-23 23-23h174c12.703 0 23 10.297 23 23 0 12.702-10.297 23-23 23z" fill="#f78e36"/><path d="m429 403.98h-174c-12.703 0-23-10.297-23-23 0-12.703 10.297-23 23-23h174c12.703 0 23 10.297 23 23 0 12.702-10.297 23-23 23z" fill="#f78e36"/><circle cx="348" cy="239.581" fill="#ffd54f" r="20"/><g><path d="m106.5 351.615c0 4.142 3.357 7.5 7.5 7.5s7.5-3.358 7.5-7.5v-143.24h135.5c16.817 0 30.5-13.682 30.5-30.5s-13.683-30.5-30.5-30.5h-135.5v-11.75h135.5c16.817 0 30.5-13.682 30.5-30.5s-13.683-30.5-30.5-30.5h-135.5v-37.125c0-12.407 10.094-22.5 22.5-22.5h26.5v17c0 12.958 10.542 23.5 23.5 23.5h124c12.958 0 23.5-10.542 23.5-23.5v-17h26.5c12.406 0 22.5 10.093 22.5 22.5v26.269c0 4.142 3.357 7.5 7.5 7.5s7.5-3.358 7.5-7.5v-26.269c0-20.678-16.822-37.5-37.5-37.5h-224c-20.678 0-37.5 16.822-37.5 37.5v37.125h-23.5c-16.817 0-30.5 13.682-30.5 30.5s13.683 30.5 30.5 30.5h23.5v11.75h-23.5c-16.817 0-30.5 13.682-30.5 30.5s13.683 30.5 30.5 30.5h23.5zm220-319.615c0 4.687-3.813 8.5-8.5 8.5h-124c-4.687 0-8.5-3.813-8.5-8.5v-16.5h141zm-259 73.125c0-8.547 6.953-15.5 15.5-15.5h30.903c.032 0 .064.005.097.005s.064-.004.097-.005h142.903c8.547 0 15.5 6.953 15.5 15.5s-6.953 15.5-15.5 15.5h-142.903c-.032 0-.064-.005-.097-.005s-.064.004-.097.005h-30.903c-8.547 0-15.5-6.953-15.5-15.5zm0 72.75c0-8.547 6.953-15.5 15.5-15.5h30.903c.032 0 .064.005.097.005s.064-.004.097-.005h142.903c8.547 0 15.5 6.953 15.5 15.5s-6.953 15.5-15.5 15.5h-142.903c-.032 0-.064-.005-.097-.005s-.064.004-.097.005h-30.903c-8.547 0-15.5-6.953-15.5-15.5z"/><path d="m276 464h-40c-4.143 0-7.5 3.358-7.5 7.5s3.357 7.5 7.5 7.5h40c4.143 0 7.5-3.358 7.5-7.5s-3.357-7.5-7.5-7.5z"/><path d="m429 350.479h-23.5v-11.75h23.5c16.817 0 30.5-13.682 30.5-30.5s-13.683-30.5-30.5-30.5h-23.5v-182.268c0-4.142-3.357-7.5-7.5-7.5s-7.5 3.358-7.5 7.5v182.268h-135.5c-16.817 0-30.5 13.682-30.5 30.5s13.683 30.5 30.5 30.5h135.5v11.75h-135.5c-16.817 0-30.5 13.682-30.5 30.5s13.683 30.5 30.5 30.5h97.385c4.143 0 7.5-3.358 7.5-7.5s-3.357-7.5-7.5-7.5h-97.385c-8.547 0-15.5-6.953-15.5-15.5s6.953-15.5 15.5-15.5h142.99.01s.006 0 .01 0h30.99c8.547 0 15.5 6.953 15.5 15.5s-6.953 15.5-15.5 15.5h-44.154c-4.143 0-7.5 3.358-7.5 7.5s3.357 7.5 7.5 7.5h5.654v20.521h-269v-48.077c0-4.142-3.357-7.5-7.5-7.5s-7.5 3.358-7.5 7.5v90.577c0 20.678 16.822 37.5 37.5 37.5h224c20.678 0 37.5-16.822 37.5-37.5v-63.021h23.5c16.817 0 30.5-13.682 30.5-30.5s-13.683-30.5-30.5-30.5zm-189.5-42.25c0-8.547 6.953-15.5 15.5-15.5h142.99.01s.006 0 .01 0h30.99c8.547 0 15.5 6.953 15.5 15.5s-6.953 15.5-15.5 15.5h-174c-8.547 0-15.5-6.953-15.5-15.5zm128.5 188.771h-224c-12.406 0-22.5-10.093-22.5-22.5v-27.5h269v27.5c0 12.407-10.094 22.5-22.5 22.5z"/><path d="m348 212.082c-15.163 0-27.5 12.336-27.5 27.5s12.337 27.5 27.5 27.5 27.5-12.336 27.5-27.5-12.337-27.5-27.5-27.5zm0 40c-6.893 0-12.5-5.607-12.5-12.5s5.607-12.5 12.5-12.5 12.5 5.607 12.5 12.5-5.607 12.5-12.5 12.5z"/></g></g></svg>