<svg width="108" height="108" viewBox="0 0 108 108" fill="none" xmlns="http://www.w3.org/2000/svg">
<mask id="mask0" mask-type="alpha" maskUnits="userSpaceOnUse" x="0" y="0" width="108" height="108">
<circle cx="54" cy="54" r="54" fill="white"/>
</mask>
<g mask="url(#mask0)">
<circle cx="54" cy="54" r="57" fill="white"/>
<path d="M92.9073 67.089C91.3954 67.089 90.1691 65.8628 90.1691 64.3509V43.3268C90.1691 41.8141 91.3954 40.5886 92.9073 40.5886C94.4199 40.5886 95.6454 41.8141 95.6454 43.3268V64.3509C95.6454 65.8628 94.4199 67.089 92.9073 67.089V67.089Z" fill="#23272B"/>
<path d="M97.2619 80.7207H88.5526C87.0407 80.7207 85.8145 79.4945 85.8145 77.9826V68.7055C85.8145 64.7945 88.9962 61.6128 92.9073 61.6128C96.8183 61.6128 100 64.7945 100 68.7048V77.9819C100 79.4945 98.7738 80.7207 97.2619 80.7207V80.7207Z" fill="#FFF04A"/>
<path d="M70.4407 39.4902H33.2047C31.6928 39.4902 30.4666 40.7158 30.4666 42.2284V62.8363C30.4666 62.8812 30.468 62.9254 30.4701 62.9696C30.5515 65.6341 33.0692 68.1588 37.5804 70.0926C41.7012 71.8593 46.7599 72.8321 51.8234 72.8321C56.8869 72.8321 61.9456 71.8593 66.0664 70.0926C70.6527 68.1265 73.1788 65.5498 73.1788 62.8363V42.2284C73.1788 40.7158 71.9526 39.4902 70.4407 39.4902V39.4902Z" fill="#555A66"/>
<path d="M70.4407 39.4902H51.8227V72.8321H51.8234C56.8869 72.8321 61.9456 71.8593 66.0664 70.0926C70.6527 68.1265 73.1788 65.5498 73.1788 62.8363V42.2284C73.1788 40.7158 71.9526 39.4902 70.4407 39.4902V39.4902Z" fill="#23272B"/>
<path d="M93.7474 40.7206L52.6629 27.4764C52.1168 27.3002 51.5286 27.3002 50.9825 27.4764L9.89795 40.7206C8.76718 41.0856 8 42.1377 8 43.3268C8 44.5151 8.76718 45.568 9.89795 45.9329L50.9825 59.1765C51.2556 59.2649 51.5391 59.3084 51.8227 59.3084C52.1063 59.3084 52.3898 59.2649 52.6629 59.1765L93.7474 45.9329C94.8782 45.568 95.6454 44.5151 95.6454 43.3268C95.6454 42.1385 94.8789 41.0856 93.7474 40.7206Z" fill="#7E8596"/>
<path d="M52.6629 59.1765L93.7474 45.933C94.8782 45.568 95.6454 44.5152 95.6454 43.3268C95.6454 42.1385 94.8782 41.0857 93.7474 40.7207L52.6629 27.4764C52.3898 27.3887 52.1063 27.3445 51.8227 27.3445V59.3085C52.1063 59.3085 52.3898 59.265 52.6629 59.1765Z" fill="#555A66"/>
</g>
</svg>
